<svg xmlns="http://www.w3.org/2000/svg" viewBox="0 0 720 420" fill="none">
  <defs>
    <filter id="shadow" x="-8%" y="-8%" width="120%" height="130%">
      <feDropShadow dx="0" dy="4" stdDeviation="12" flood-color="#000" flood-opacity="0.18"/>
    </filter>
    <filter id="shadow-sm" x="-8%" y="-8%" width="120%" height="130%">
      <feDropShadow dx="0" dy="3" stdDeviation="8" flood-color="#000" flood-opacity="0.15"/>
    </filter>
  </defs>

  <!-- ── Yellow Note (front) ─────────────────── -->
  <g filter="url(#shadow)">
    <rect x="60" y="40" width="280" height="260" rx="8" fill="#FFF9C4"/>
    <!-- titlebar -->
    <rect x="60" y="40" width="280" height="32" rx="8" fill="#F9E97A"/>
    <rect x="60" y="56" width="280" height="16" fill="#F9E97A"/>
    <!-- buttons -->
    <circle cx="82" cy="56" r="8" fill="rgba(0,0,0,0.08)"/>
    <text x="82" y="59.5" text-anchor="middle" font-size="10" font-family="-apple-system,sans-serif" fill="#3E3A2E">+</text>
    <circle cx="318" cy="56" r="8" fill="rgba(0,0,0,0.06)"/>
    <text x="318" y="59" text-anchor="middle" font-size="9" font-family="-apple-system,sans-serif" fill="#3E3A2E">x</text>
    <!-- content - markdown rendered -->
    <text x="80" y="100" font-size="16" font-weight="bold" font-family="-apple-system,sans-serif" fill="#3E3A2E">Welcome!</text>
    <text x="80" y="128" font-size="13" font-family="-apple-system,sans-serif" fill="#3E3A2E">- Double-click to edit</text>
    <text x="80" y="150" font-size="13" font-family="-apple-system,sans-serif" fill="#3E3A2E">- <tspan font-weight="bold">Bold</tspan> and <tspan font-style="italic">italic</tspan> supported</text>
    <text x="80" y="172" font-size="13" font-family="-apple-system,sans-serif" fill="#3E3A2E">- Markdown preview</text>
    <!-- checkbox -->
    <rect x="80" y="187" width="14" height="14" rx="3" fill="none" stroke="#3E3A2E" stroke-width="1.5"/>
    <polyline points="83,194 87,198 93,190" stroke="#3E3A2E" stroke-width="1.8" stroke-linecap="round" stroke-linejoin="round" fill="none"/>
    <text x="100" y="199" font-size="13" font-family="-apple-system,sans-serif" fill="#3E3A2E">Checklist support</text>
    <rect x="80" y="210" width="14" height="14" rx="3" fill="none" stroke="rgba(62,58,46,0.4)" stroke-width="1.5"/>
    <text x="100" y="222" font-size="13" font-family="-apple-system,sans-serif" fill="rgba(62,58,46,0.5)">Click to toggle</text>
    <!-- blockquote -->
    <rect x="80" y="240" width="3" height="36" rx="1.5" fill="rgba(62,58,46,0.2)"/>
    <text x="92" y="254" font-size="12" font-family="-apple-system,sans-serif" fill="rgba(62,58,46,0.6)">Right-click for menu</text>
    <text x="92" y="270" font-size="12" font-family="-apple-system,sans-serif" fill="rgba(62,58,46,0.6)">New note</text>
  </g>

  <!-- ── Blue Note (behind, right) ───────────── -->
  <g filter="url(#shadow-sm)">
    <rect x="380" y="80" width="260" height="220" rx="8" fill="#BBDEFB"/>
    <rect x="380" y="80" width="260" height="32" rx="8" fill="#7FB3E0"/>
    <rect x="380" y="96" width="260" height="16" fill="#7FB3E0"/>
    <circle cx="402" cy="96" r="8" fill="rgba(0,0,0,0.08)"/>
    <text x="402" y="99.5" text-anchor="middle" font-size="10" font-family="-apple-system,sans-serif" fill="#3E3A2E">+</text>
    <circle cx="618" cy="96" r="8" fill="rgba(0,0,0,0.06)"/>
    <text x="618" y="99" text-anchor="middle" font-size="9" font-family="-apple-system,sans-serif" fill="#3E3A2E">x</text>
    <!-- content -->
    <text x="400" y="140" font-size="15" font-weight="bold" font-family="-apple-system,sans-serif" fill="#3E3A2E">TODO</text>
    <rect x="400" y="153" width="14" height="14" rx="3" fill="none" stroke="#3E3A2E" stroke-width="1.5"/>
    <polyline points="403,160 407,164 413,156" stroke="#3E3A2E" stroke-width="1.8" stroke-linecap="round" stroke-linejoin="round" fill="none"/>
    <text x="420" y="165" font-size="13" font-family="-apple-system,sans-serif" fill="#3E3A2E" text-decoration="line-through">Design review</text>
    <rect x="400" y="176" width="14" height="14" rx="3" fill="none" stroke="rgba(62,58,46,0.4)" stroke-width="1.5"/>
    <text x="420" y="188" font-size="13" font-family="-apple-system,sans-serif" fill="#3E3A2E">Ship v1.0</text>
    <rect x="400" y="199" width="14" height="14" rx="3" fill="none" stroke="rgba(62,58,46,0.4)" stroke-width="1.5"/>
    <text x="420" y="211" font-size="13" font-family="-apple-system,sans-serif" fill="#3E3A2E">Write docs</text>
  </g>

  <!-- ── Pink Note (behind, bottom) ──────────── -->
  <g filter="url(#shadow-sm)">
    <rect x="200" y="260" width="240" height="140" rx="8" fill="#F8BBD0"/>
    <rect x="200" y="260" width="240" height="32" rx="8" fill="#E88FAB"/>
    <rect x="200" y="276" width="240" height="16" fill="#E88FAB"/>
    <circle cx="222" cy="276" r="8" fill="rgba(0,0,0,0.08)"/>
    <text x="222" y="279.5" text-anchor="middle" font-size="10" font-family="-apple-system,sans-serif" fill="#3E3A2E">+</text>
    <circle cx="418" cy="276" r="8" fill="rgba(0,0,0,0.06)"/>
    <text x="418" y="279" text-anchor="middle" font-size="9" font-family="-apple-system,sans-serif" fill="#3E3A2E">x</text>
    <!-- content - editing mode feel -->
    <text x="220" y="318" font-size="13" font-family="-apple-system,sans-serif" fill="#3E3A2E">Meeting notes 3/20</text>
    <text x="220" y="340" font-size="13" font-family="-apple-system,sans-serif" fill="#3E3A2E">- API design finalized</text>
    <text x="220" y="362" font-size="13" font-family="-apple-system,sans-serif" fill="#3E3A2E">- Launch date: April 1st</text>
    <!-- cursor blink -->
    <rect x="379" y="351" width="1.5" height="15" rx="0.75" fill="#3E3A2E" opacity="0.7"/>
  </g>

  <!-- ── Green Note (small, top right) ───────── -->
  <g filter="url(#shadow-sm)">
    <rect x="540" y="20" width="160" height="100" rx="8" fill="#C8E6C9"/>
    <rect x="540" y="20" width="160" height="32" rx="8" fill="#8CC98F"/>
    <rect x="540" y="36" width="160" height="16" fill="#8CC98F"/>
    <circle cx="562" cy="36" r="8" fill="rgba(0,0,0,0.08)"/>
    <text x="562" y="39.5" text-anchor="middle" font-size="10" font-family="-apple-system,sans-serif" fill="#3E3A2E">+</text>
    <circle cx="678" cy="36" r="8" fill="rgba(0,0,0,0.06)"/>
    <text x="678" y="39" text-anchor="middle" font-size="9" font-family="-apple-system,sans-serif" fill="#3E3A2E">x</text>
    <!-- pin icon indicator -->
    <text x="560" y="78" font-size="13" font-family="-apple-system,sans-serif" fill="#3E3A2E">Buy milk</text>
    <text x="560" y="98" font-size="13" font-family="-apple-system,sans-serif" fill="#3E3A2E">Call dentist</text>
  </g>

  <!-- ── App name label ──────────────────────── -->
  <text x="480" y="390" font-size="24" font-weight="600" font-family="-apple-system,sans-serif" fill="#3E3A2E" text-anchor="middle" letter-spacing="-0.5">
    <tspan fill="#F9E97A" font-size="28">&#9632;</tspan> hatto-to
  </text>
  <text x="480" y="412" font-size="13" font-family="-apple-system,sans-serif" fill="rgba(62,58,46,0.5)" text-anchor="middle">macOS Stickies-like notes app</text>
</svg>
